<svg xmlns="http://www.w3.org/2000/svg" viewBox="0 0 48 48">
  <defs>
    <linearGradient id="dot" x1="0" y1="0" x2="1" y2="1"><stop offset="0" stop-color="#818cf8"/><stop offset="1" stop-color="#60a5fa"/></linearGradient>
    <linearGradient id="leaf" x1="0.3" y1="0" x2="0.5" y2="1"><stop offset="0" stop-color="#6366f1"/><stop offset="0.55" stop-color="#3b82f6"/><stop offset="1" stop-color="#22d3ee"/></linearGradient>
    <linearGradient id="stem" x1="0" y1="0" x2="0" y2="1"><stop offset="0" stop-color="#67e8f9"/><stop offset="1" stop-color="#22b8f0"/></linearGradient>
  </defs>
  <g transform="translate(4 0)">
    <circle cx="27" cy="6" r="6" fill="url(#dot)"/>
    <path d="M21 15C13 16.5 7 23 7 31.5C7 36.5 9 41 12.5 44C14 38.5 17 34.5 21 32.5Z" fill="url(#leaf)"/>
    <path d="M21 15H31A2 2 0 0 1 33 17V32C33 39.7 26.7 46 19 46H11C16.5 46 21 41.5 21 36Z" fill="url(#stem)"/>
  </g>
</svg>
